<svg version="1.1"
  xmlns="http://www.w3.org/2000/svg">
  <defs>
    <symbol id="army" viewBox="0 0 512 512">
      <path d="M197.62 238.574v-45.828c-14.75 5.27-31.722 11.334-49.026 17.522l49.026 28.306zM122.679 275.084c.007 9.827 1.453 19.409 4.319 28.605l49.549-28.605-49.549-28.605c-2.866 9.196-4.319 18.785-4.319 28.605zM260.854 275.084l13.474 7.776c1.99-.713 3.627-1.297 4.856-1.732 5.046-1.807 17.963-7.022 35.192-14.112a94.873 94.873 0 0 0-3.98-20.536l-49.542 28.604zM256.066 186.594a95.027 95.027 0 0 0-16.292-5.203v57.183l49.46-28.551c-9.297-10.105-20.604-18.119-33.168-23.429z" />
      <path d="M297.275 158.573c-22.404-15.145-49.535-24.014-78.574-24.007-19.355-.007-37.881 3.932-54.704 11.049-25.236 10.676-46.656 28.469-61.8 50.887-15.158 22.404-24.021 49.535-24.014 78.581 0 19.348 3.932 37.875 11.056 54.696 10.676 25.236 28.469 46.656 50.88 61.8 22.411 15.158 49.536 24.02 78.582 24.014 19.348 0 37.875-3.932 54.703-11.049 25.236-10.683 46.656-28.476 61.8-50.887 15.151-22.412 24.014-49.535 24.007-78.574.007-19.355-3.932-37.882-11.05-54.703-10.675-25.243-28.468-46.662-50.886-61.807zm-66.867 11.783c10.302 1.134 20.129 3.728 29.304 7.613 17.521 7.403 32.611 19.498 43.783 34.636l-67.444 38.941a29.375 29.375 0 0 0-5.644-3.287v-77.903zm-70.621 17.324c13.793-9.304 29.826-15.416 47.199-17.338v77.916a29.35 29.35 0 0 0-5.637 3.287l-67.464-38.955c7.157-9.69 15.905-18.159 25.902-24.91zm-46.473 87.404c0-14.601 2.954-28.421 8.279-41.02.17-.408.38-.801.556-1.208l67.464 38.954a30.614 30.614 0 0 0-.19 3.274c0 1.1.074 2.186.19 3.259l-67.491 38.982c-5.664-12.917-8.801-27.178-8.808-42.241zm93.672 104.721c-10.296-1.141-20.13-3.735-29.297-7.614-17.522-7.409-32.612-19.498-43.79-34.635l67.45-38.934a28.932 28.932 0 0 0 5.637 3.28v77.903zm11.714-93.013c-6.472 0-11.715-5.243-11.715-11.708 0-6.472 5.243-11.715 11.715-11.715 6.465 0 11.708 5.243 11.708 11.715 0 6.465-5.242 11.708-11.708 11.708zm58.908 75.681c-13.793 9.31-29.82 15.429-47.199 17.344v-77.916c2.017-.876 3.892-1.99 5.644-3.28l67.457 38.941c-7.159 9.699-15.899 18.161-25.902 24.911zm38.2-46.378c-.17.408-.38.795-.557 1.202L247.78 278.35c.116-1.08.197-2.166.197-3.266 0-1.114-.081-2.2-.197-3.274l67.498-38.968c5.664 12.916 8.802 27.171 8.808 42.241-.006 14.602-2.954 28.415-8.278 41.012zM61.959 275.084c-.007-15.416 2.296-30.316 6.458-44.428l-31.321 11.192c-4.265 1.528-6.492 6.166-5.093 10.431-19.858 9.874-40.055 37.026-28.741 68.693 11.315 31.654 44.158 39.872 65.767 34.914 1.63 4.197 6.289 6.357 10.554 4.842l6.438-2.302c-4.462-7.09-8.428-14.526-11.728-22.33-7.947-18.764-12.334-39.43-12.334-61.012zM477.772 96.406l-14.506 5.182c-10.16 3.634-6.479 9.854-24.394 16.251-1.827.652-5.494 1.834-10.581 3.423-2.139-2.825-5.901-4.088-9.412-2.839a8.312 8.312 0 0 0-5.501 7.43c-31.546 9.602-54.351 15.402-95.75 27.742 19.681 16.041 35.436 36.707 45.481 60.47a155.59 155.59 0 0 1 9.018 28.923c35.097-14.954 45.393-22.071 71.396-32.781 2.187 2.424 5.705 3.429 8.964 2.255 3.511-1.257 5.616-4.625 5.481-8.157 4.937-1.996 8.523-3.409 10.356-4.06 17.908-6.411 19.008.733 29.169-2.894L512 192.169l-34.228-95.763z" />
    </symbol>

    <symbol id="fleet" viewBox="0 0 512 512">
      <path d="M485.334 232.808c-15.2 0-28.162 6.185-39.406 7.977 0 0-7.392.948-15.644 1.126-1.511-18.993-6.059-37.169-13.185-53.984-6.992-16.533-16.458-31.732-27.925-45.191 5.97-5.712 11.881-10.274 11.881-10.274 9.215-6.689 22.755-11.481 33.51-22.237 10.563-10.563 11.511-26.192 2.459-35.243-9.066-9.059-24.696-8.111-35.244 2.46-10.77 10.748-15.555 24.28-22.236 33.503 0 0-4.563 5.896-10.266 11.866a176.311 176.311 0 0 0-15.511-11.792c-24.221-16.384-52.872-26.843-83.686-29.303.185-8.244 1.133-15.636 1.133-15.636 1.786-11.252 7.97-24.214 7.97-39.422C279.184 11.726 268.807 0 256 0s-23.185 11.726-23.185 26.658c0 15.207 6.186 28.17 7.97 39.422 0 0 .948 7.392 1.133 15.636a173.915 173.915 0 0 0-53.983 13.177c-16.533 6.992-31.74 16.466-45.199 27.933-5.704-5.978-10.281-11.881-10.281-11.881-6.682-9.215-11.466-22.755-22.229-33.503-10.562-10.563-26.192-11.518-35.25-2.46-9.052 9.052-8.096 24.68 2.459 35.243 10.762 10.756 24.296 15.548 33.51 22.237 0 0 5.896 4.562 11.858 10.266a177.822 177.822 0 0 0-11.785 15.488 174.08 174.08 0 0 0-29.303 83.694c-8.244-.178-15.644-1.126-15.644-1.126-11.244-1.785-24.199-7.977-39.406-7.977C11.733 232.808 0 243.193 0 256c0 12.807 11.726 23.177 26.666 23.177 15.207 0 28.162-6.177 39.406-7.97 0 0 7.393-.942 15.644-1.126 1.518 18.992 6.066 37.169 13.185 53.984 6.992 16.533 16.459 31.74 27.918 45.191-5.962 5.711-11.874 10.282-11.874 10.282-9.215 6.688-22.748 11.481-33.51 22.236-10.555 10.563-11.511 26.192-2.459 35.243 9.059 9.059 24.688 8.104 35.25-2.459 10.763-10.748 15.541-24.289 22.229-33.503 0 0 4.57-5.911 10.266-11.867a174.79 174.79 0 0 0 15.504 11.786 173.863 173.863 0 0 0 83.693 29.302c-.185 8.245-1.133 15.644-1.133 15.644-1.785 11.251-7.97 24.206-7.97 39.414C232.815 500.267 243.193 512 256 512c12.807 0 23.184-11.733 23.184-26.666 0-15.207-6.185-28.162-7.97-39.414 0 0-.948-7.392-1.133-15.636a174.322 174.322 0 0 0 53.984-13.178c16.533-6.999 31.732-16.474 45.199-27.932 5.704 5.97 10.282 11.881 10.282 11.881 6.681 9.214 11.466 22.755 22.222 33.503 10.562 10.563 26.192 11.518 35.258 2.459 9.052-9.052 8.104-24.68-2.459-35.243-10.756-10.755-24.296-15.548-33.51-22.236 0 0-5.896-4.563-11.866-10.266a176.438 176.438 0 0 0 11.792-15.496 173.991 173.991 0 0 0 29.303-83.694c8.252.185 15.644 1.126 15.644 1.126 11.244 1.792 24.206 7.97 39.406 7.97 14.933 0 26.666-10.37 26.666-23.177-.002-12.808-11.735-23.193-26.668-23.193zm-122.011-63.761a136.789 136.789 0 0 1 7.244 9.726c12.355 18.325 20.414 39.688 22.814 62.813h-88.923a50.516 50.516 0 0 0-4-9.674l62.865-62.865zm-92.916-50.443a137.336 137.336 0 0 1 39.362 10.103c12.014 5.082 23.169 11.837 33.184 19.963l-62.872 62.865a50.452 50.452 0 0 0-9.674-4v-88.931zm-141.699 83.627c5.081-12.022 11.844-23.177 19.97-33.184l62.865 62.865a50.638 50.638 0 0 0-4 9.674l-88.938.008c1.436-13.845 4.895-27.052 10.103-39.363zm19.97 140.715a136.18 136.18 0 0 1-7.244-9.726c-12.355-18.318-20.422-39.688-22.814-62.82l88.923.008a50.29 50.29 0 0 0 4 9.682l-62.865 62.856zm92.915 50.45a137.573 137.573 0 0 1-39.362-10.103 138.271 138.271 0 0 1-33.184-19.97l62.872-62.865c3.037 1.66 6.289 3 9.674 4.007v88.931zm0-185.862a50.006 50.006 0 0 0-9.674 4.007l-62.872-62.864a138.774 138.774 0 0 1 9.726-7.237 137.156 137.156 0 0 1 62.821-22.822v88.916zM256 270.17c-7.829 0-14.17-6.34-14.17-14.17s6.341-14.17 14.17-14.17 14.17 6.34 14.17 14.17c0 7.829-6.341 14.17-14.17 14.17zm77.22 100.39c-18.318 12.362-39.688 20.428-62.813 22.822v-88.916a50.032 50.032 0 0 0 9.674-4.007l62.872 62.865c-3.141 2.539-6.37 4.969-9.733 7.236zm50.072-60.792c-5.081 12.022-11.836 23.17-19.97 33.184l-62.865-62.864a50.748 50.748 0 0 0 4-9.682h88.938a137.458 137.458 0 0 1-10.103 39.362z" />
    </symbol>

    <symbol id="anchor" viewBox="0 0 512 512">
      <path d="M511.781 313.844c-5.391-44.156-36.156-104.438-45.844-116.531-9.688-12.125-16.625-29.938-31.5 0-12.063 24.25-53.313 92.063-46.047 101.75 7.266 9.719 21.813-2.406 38.781-9.688 2.422 24.25-16.891 67.031-58.078 86.406s-77.625 17.813-77.625-18.563v-84.906h44.5v-48.469h-44.5V178.03c16.125-6.844 29.781-18.125 39.563-32.375a90.916 90.916 0 0 0 11.531-23.594 90.535 90.535 0 0 0 4.297-26.844V94.341a90.192 90.192 0 0 0-7.063-35.125 91.048 91.048 0 0 0-32.516-39.875c-7.188-4.906-15.125-8.844-23.594-11.531a91.064 91.064 0 0 0-26.844-4.313h.094-.969c-12.344 0-24.313 2.5-35.125 7.063a91.523 91.523 0 0 0-39.875 32.5 91.106 91.106 0 0 0-11.531 23.625 89.808 89.808 0 0 0-4.281 26.813v-.094c-.031.375-.031.719-.031.969a90.933 90.933 0 0 0 7.063 35.125 91.023 91.023 0 0 0 32.531 39.875 91.087 91.087 0 0 0 15.813 8.656v45.813h-44.5v48.469h44.5v84.906c0 36.375-36.438 37.938-77.625 18.563s-60.484-62.156-58.078-86.406c16.969 7.281 31.516 19.406 38.797 9.688 7.25-9.688-34-77.5-46.063-101.75-14.891-29.938-21.813-12.125-31.5 0C36.374 209.406 5.609 269.687.218 313.843c-1.469 8.75 4.313 21.563 18.297 7.563 7.031-7.031 13.281-12.313 16.156-16.188C41.938 344 77.297 417.344 145.406 454.156c65.438 35.344 95.156 41.969 108.031 53.156.469.438 1.531 1.188 2.563 1.188s2.094-.75 2.563-1.188c12.875-11.188 42.594-17.813 108.031-53.156C434.703 417.344 470.063 344 477.313 305.219c2.891 3.875 9.141 9.156 16.172 16.188 13.984 13.999 19.765 1.187 18.296-7.563zM220.063 94.094v-.063c.063-5 1.094-9.656 2.906-13.875 2.75-6.375 7.344-11.844 13.063-15.688 2.875-1.906 6-3.438 9.344-4.469s6.875-1.563 10.594-1.594c.188 0 .25 0 .281.031h.094c5 .031 9.625 1.063 13.875 2.906 6.344 2.719 11.844 7.344 15.656 13.063 1.938 2.875 3.438 6 4.469 9.344s1.594 6.844 1.594 10.594v.406c-.063 5-1.094 9.594-2.906 13.844-2.75 6.344-7.344 11.844-13.063 15.656-2.875 1.938-6 3.438-9.344 4.469s-6.875 1.594-10.594 1.594h-.375c-5-.063-9.625-1.094-13.875-2.938a35.83 35.83 0 0 1-15.656-13.063c-1.938-2.844-3.438-6-4.469-9.313a35.825 35.825 0 0 1-1.594-10.625v-.279z" />
    </symbol>

    <symbol id="map" viewBox="0 0 880 800">
      <g id="map_base" style="display:inline;stroke-width:.999775">
        <path style="fill:#f3e9cc;fill-opacity:1;stroke:#1a1a1a;stroke-width:.264523;stroke-dasharray:none" d="M599.638 640.106v80.013h39.976v-40.007h79.951v-40.006z" />
        <path style="fill:#f3e9cc;fill-opacity:1;stroke:#1a1a1a;stroke-width:.264525;stroke-dasharray:none" d="M399.758 40.007v80.013h107.935V80.013h251.848V40.007H453.726Z" />
        <path style="fill:#f3e9cc;fill-opacity:1;stroke:#1a1a1a;stroke-width:.264525;stroke-dasharray:none" d="M519.686 80.013H679.59v40.007h-79.952v80.013h-79.952zM0 720.119v80.013h279.83V720.12z" />
        <path style="fill:#f7ff80;fill-opacity:1;stroke:#1a1a1a;stroke-width:.264523;stroke-dasharray:none" d="M839.493 600.1v160.026h39.976V600.099Z" />
        <path style="fill:#f3e9cc;fill-opacity:1;stroke:#1a1a1a;stroke-width:.264525;stroke-dasharray:none" d="M279.83 720.12v80.012h39.977V720.12z" />
        <path style="fill:#c7ffc7;fill-opacity:1;stroke:#1a1a1a;stroke-width:.264525;stroke-dasharray:none" d="M319.807 480.08v40.006H439.734V480.08H399.76ZM399.759 520.086v80.013h39.975v-80.013zM359.783 680.112V720.12h79.951V680.112z" />
        <path style="fill:#c7ffc7;fill-opacity:1;stroke:#1a1a1a;stroke-width:.264525;stroke-dasharray:none" d="M399.759 600.1v80.012h39.975V600.1z" />
        <path style="fill:#c7ffc7;fill-opacity:1;stroke:#1a1a1a;stroke-width:.264525;stroke-dasharray:none" d="M439.734 640.106v80.013h39.976v-80.013zM439.734 480.08v160.026h39.976v-80.013h39.976v-80.014H479.71z" />
        <path style="fill:#f3e9cc;fill-opacity:1;stroke:#1a1a1a;stroke-width:.264525;stroke-dasharray:none" d="M39.976 480.08v40.006H79.95v160.026H199.88V480.08z" />
        <path style="fill:#f3e9cc;fill-opacity:1;stroke:#1a1a1a;stroke-width:.264525;stroke-dasharray:none" d="M39.976 520.086v120.02H79.95v-120.02z" />
        <path style="fill:#c7c7c7;fill-opacity:1;stroke:#1a1a1a;stroke-width:.264523;stroke-dasharray:none" d="M519.686 320.053V240.04h79.951v80.013zM479.71 320.053v40.007H399.76v40.006h-79.952v40.007h199.88V360.06H559.661v-40.007Z" />
        <path style="fill:#d8ffff;fill-opacity:1;stroke:#1a1a1a;stroke-width:.264523;stroke-dasharray:none" d="M119.927 280.046v80.013h79.952v-80.013Z" />
        <path style="fill:#d8ffff;fill-opacity:1;stroke:#1a1a1a;stroke-width:.264525;stroke-dasharray:none" d="M159.903 440.073v40.006h79.952v40.007h79.952v-80.013H199.879z" />
        <path style="fill:#d8ffff;fill-opacity:1;stroke:#1a1a1a;stroke-width:.264525;stroke-dasharray:none" d="M159.903 360.06h-39.976v120.019h39.976v-40.006h39.976v-80.014z" />
        <path style="fill:#d8ffff;fill-opacity:1;stroke:#1a1a1a;stroke-width:.264523;stroke-dasharray:none" d="M199.88 280.046v40.007H319.806v-40.007zM199.88 320.053v80.013h79.95v-80.013z" />
        <path style="fill:#d8ffff;fill-opacity:1;stroke:#1a1a1a;stroke-width:.264523;stroke-dasharray:none" d="M279.83 320.053v80.013H199.88v40.007h119.928v-120.02Z" />
        <path style="fill:#a40;stroke:#1a1a1a;stroke-width:.264523;stroke-dasharray:none" d="M319.807 440.073v40.006h79.952v-40.006z" />
        <path style="fill:#c7c7c7;fill-opacity:1;stroke:#1a1a1a;stroke-width:.264525;stroke-dasharray:none" d="M439.734 200.033h-39.976V360.06h79.952v-40.007h39.976V240.04h-79.952z" />
        <path style="fill:#c7c7c7;fill-opacity:1;stroke:#1a1a1a;stroke-width:.264523;stroke-dasharray:none" d="M359.783 360.06h-39.976v40.006h79.952v-80.013h-39.976z" />
        <path style="fill:#ffc7c7;fill-opacity:1;stroke:#1a1a1a;stroke-width:.264522;stroke-dasharray:none" d="M599.638 480.08v40.006h-39.976v80.013H679.59v-80.013h-39.976v-40.007z" />
        <path style="fill:#ffc7c7;fill-opacity:1;stroke:#1a1a1a;stroke-width:.264525;stroke-dasharray:none" d="M399.759 440.073v40.006H559.662v-40.006z" />
        <path style="fill:#ffc7c7;fill-opacity:1;stroke:#1a1a1a;stroke-width:.264523;stroke-dasharray:none" d="M519.686 360.06v80.013h79.952V360.06ZM559.662 440.073v80.013h39.976v-40.007h39.976v-40.006z" />
        <path style="fill:#ffc7c7;fill-opacity:1;stroke:#1a1a1a;stroke-width:.264525;stroke-dasharray:none" d="M519.686 480.08v160.026h39.976V480.079ZM599.638 400.066v40.007h39.976v80.013h39.976V400.066h-39.976z" />
        <path style="fill:#c7c7c7;fill-opacity:1;stroke:#1a1a1a;stroke-width:.264523;stroke-dasharray:none" d="M599.638 360.06h-39.976v-40.007h79.952v80.013h-39.976z" />
        <path style="fill:#c7c7c7;fill-opacity:1;stroke:#1a1a1a;stroke-width:.264525;stroke-dasharray:none" d="M599.638 240.04v80.013h119.928V240.04z" />
        <path style="fill:#f3e9cc;fill-opacity:1;stroke:#1a1a1a;stroke-width:.264523;stroke-dasharray:none" d="M519.686 640.106v80.013h39.976v-80.013zM559.662 680.112v80.014h39.976v-80.014Z" />
        <path style="fill:#f3e9cc;fill-opacity:1;stroke:#1a1a1a;stroke-width:.264523;stroke-dasharray:none" d="M559.662 600.1v80.012h39.976V600.1z" />
        <path style="fill:#fff;fill-opacity:1;stroke:#1a1a1a;stroke-width:.264523;stroke-dasharray:none" d="M639.614 320.053v80.013h79.952v-80.013Z" />
        <path style="fill:#f3e9cc;fill-opacity:1;stroke:#1a1a1a;stroke-width:.264525;stroke-dasharray:none" d="M679.59 600.1h-79.952v40.006h119.927V480.079H679.59z" />
        <path style="fill:#fff;stroke:#1a1a1a;stroke-width:.264525;stroke-dasharray:none" d="M719.566 200.033V360.06h39.975V200.033Z" />
        <path style="fill:#fff;stroke:#1a1a1a;stroke-width:.264523;stroke-dasharray:none" d="M759.541 240.04v120.02h-39.975v40.006h159.903V240.04Z" />
        <path style="fill:#fff;stroke:#1a1a1a;stroke-width:.264525;stroke-dasharray:none" d="M679.59 400.066v80.013h39.975v80.014h39.976l-.074-40.007h40.05v-120.02ZM759.541 40.007V240.04H879.47V40.007zM679.59 80.013v80.013h79.951V80.013Z" />
        <path style="fill:#c7d7ff;fill-opacity:1;stroke:#1a1a1a;stroke-width:.264523;stroke-dasharray:none" d="M119.927 80.013v80.013h39.976V80.013ZM119.927 160.026v80.014h39.976v-80.014z" />
        <path style="fill:#c7d7ff;fill-opacity:1;stroke:#1a1a1a;stroke-width:.264523;stroke-dasharray:none" d="M159.903 200.033v40.007h79.952v-40.007z" />
        <path style="fill:#b4b6cc;fill-opacity:1;stroke:#1a1a1a;stroke-width:.264523;stroke-dasharray:none" d="M639.614 760.126v40.006H759.54v-40.006z" />
        <path style="fill:#b4b6cc;fill-opacity:1;stroke:#1a1a1a;stroke-width:.264525;stroke-dasharray:none" d="M199.88 680.112h-79.953v40.007h199.88V600.1H199.879Z" />
        <path style="fill:#c7d7ff;fill-opacity:1;stroke:#1a1a1a;stroke-width:.264523;stroke-dasharray:none" d="M159.903 40.007v80.013h39.976V40.007Z" />
        <path style="fill:#c7d7ff;fill-opacity:1;stroke:#1a1a1a;stroke-width:.264523;stroke-dasharray:none" d="M159.903 120.02v80.013h39.976V120.02zM79.952 40.007v40.006h79.951V40.007Z" />
        <path style="fill:#fff;stroke:#1a1a1a;stroke-width:.264523;stroke-dasharray:none" d="M799.517 400.066v120.02h-40.739l.763 40.007h-39.976v40.006H879.47V400.066Z" />
        <path style="fill:#f7ff80;fill-opacity:1;stroke:#1a1a1a;stroke-width:.264523;stroke-dasharray:none" d="M679.59 680.112v40.007h79.951v-40.007ZM679.59 720.119v40.007h159.903v-40.007zM759.541 640.106v80.013h79.952v-80.013zM759.541 760.126v40.006H879.47v-40.006z" />
        <path style="fill:#f3e9cc;fill-opacity:1;stroke:#1a1a1a;stroke-width:.264522;stroke-dasharray:none" d="M319.807 300.05v-60.01h39.976v120.02h-39.976Z" />
        <path style="fill:#f3e9cc;fill-opacity:1;stroke:#1a1a1a;stroke-width:.264523;stroke-dasharray:none" d="M359.783 260.043v-60.01H399.758v120.02H359.783z" />
        <path style="fill:#f3e9cc;fill-opacity:1;stroke:#1a1a1a;stroke-width:.264525;stroke-dasharray:none" d="M439.734 200.033v-40.007h79.952v40.007H479.71v40.007h-39.976z" />
        <path style="fill:none;fill-opacity:1;stroke:#1a1a1a;stroke-width:.264525;stroke-dasharray:none" d="M0 0v800.132h879.469V0Z" />
        <path style="fill:#b4b6cc;fill-opacity:1;stroke:#1a1a1a;stroke-width:.264523;stroke-dasharray:none" d="M79.951 280.046h239.856V239.35l-239.856.69zM719.565 680.112h39.976v-40.006h79.952v-40.007H719.565zM359.783 760.126h-39.976v40.006h319.807v-40.006h-79.952v-40.007h-199.88Z" />
        <path style="fill:#b4b6cc;fill-opacity:1;stroke:#1a1a1a;stroke-width:.264523;stroke-dasharray:none" d="M639.614 680.112v40.007h-39.976v40.007h79.952v-80.014zM479.71 560.093v160.026h39.976V560.093ZM0 280.046V720.12h119.927v-40.007H79.951v-40.006H39.976V480.079h79.951V280.046H39.976ZM319.807 560.093v200.033h39.976v-80.014h39.975v-120.02h-39.975z" />
        <path style="fill:#b4b6cc;fill-opacity:1;stroke:#1a1a1a;stroke-width:.264523;stroke-dasharray:none" d="M199.88 480.08V600.1h119.927v-40.007h79.951v-40.007H239.855v-40.007zM39.976 120.02v160.026H79.95V240.04h39.976V120.02Z" />
        <path style="fill:#b4b6cc;fill-opacity:1;stroke:#1a1a1a;stroke-width:.264523;stroke-dasharray:none" d="M0 0v280.046h39.976V120.02h79.951V80.013H79.951V0H39.976Z" />
        <path style="fill:#b4b6cc;fill-opacity:1;stroke:#1a1a1a;stroke-width:.264522;stroke-dasharray:none" d="M79.951 0v40.007h639.614V0Z" />
        <path style="fill:#b4b6cc;fill-opacity:1;stroke:#1a1a1a;stroke-width:.264523;stroke-dasharray:none" d="M359.783 200.033h79.951v-40.007h-79.951zM479.71 200.033v40.007h239.855v-40.007z" />
        <path style="fill:#b4b6cc;fill-opacity:1;stroke:#1a1a1a;stroke-width:.264523;stroke-dasharray:none" d="M599.638 120.02v80.013H759.54v-40.007H679.59V120.02zM479.71 80.013v80.013h39.976V80.013ZM719.566 0v40.007h159.903V0ZM199.88 40.007v160.026h39.975v40.007h119.928v-80.014H479.71V120.02h-79.952V40.007Z" />
        <path style="fill:#000;fill-opacity:0;stroke:#1a1a1a;stroke-width:.264525;stroke-dasharray:none" d="M639.614 400.066h39.976v40.007" fill="none" />
        <path style="fill:#000;fill-opacity:0;stroke:#1a1a1a;stroke-width:.264525;stroke-dasharray:none" d="M0 0v800.223h879.337V0Z" fill="none" />
      </g>

      <g id="map_flame" style="display:inline">
        <path style="fill:none;fill-opacity:1;stroke:#1a1a1a;stroke-width:3;stroke-dasharray:none" d="M79.997 39.868V79.88h39.991v160.049h119.976v-40.012h-39.992V39.867ZM.013 720.076h279.943V800.1H.013v-80.024M279.956 720.076V800.1h39.992l-.04-80.128zM40.005 480.002h159.967v200.061H79.997V520.014H40.005Z" />
        <path style="fill:none;fill-opacity:1;stroke:#1a1a1a;stroke-width:3;stroke-dasharray:none" d="M79.997 640.051V520.014H40.005v120.037h39.992M119.988 279.941v200.061h119.976v40.012h79.984V279.941ZM319.948 239.929v120.037h39.992V239.929ZM359.94 199.917v120.036h39.992V199.917ZM759.86 79.88H479.915v40.012h-79.984V39.868h359.927z" />
        <path style="fill:none;fill-opacity:1;stroke:#1a1a1a;stroke-width:3;stroke-dasharray:none" d="M679.875 79.88H519.908v120.037h79.984v-80.025h79.983zM439.924 159.904v80.025h39.992v-40.012h39.992v-40.013z" />
        <path style="fill:none;fill-opacity:1;stroke:#1a1a1a;stroke-width:3;stroke-dasharray:none" d="M399.932 199.917h39.992v40.012h279.943v80.024h-79.984v80.025h-39.991v-40.012h-79.984v80.024h-199.96v-80.024h39.992v-40.013h39.992z" />
        <path style="fill:none;fill-opacity:1;stroke:#1a1a1a;stroke-width:3;stroke-dasharray:none" d="M599.892 359.966h-79.984v80.024H399.932v40.012h119.976v160.05H559.9v-40.013h119.975V399.978h-79.983z" />
        <path style="fill:none;fill-opacity:1;stroke:#1a1a1a;stroke-width:3;stroke-dasharray:none" d="M519.908 480.002h-199.96v40.012h79.984v160.05H359.94v40.012h119.976v-160.05h39.992zM559.9 640.051h-39.992v80.025H559.9V640.05M559.9 720.076v40.012h39.992v-80.025H559.9zM559.9 600.039h39.992v80.024H559.9zM599.892 720.076h39.991v-40.013h79.984v-40.012H599.892Z" />
        <path style="fill:none;fill-opacity:1;stroke:#1a1a1a;stroke-width:3;stroke-dasharray:none" d="M679.875 600.039V480.002h39.992v160.05H599.892v-40.013zM719.867 600.039h159.968M879.835 800.1V600.039h-39.992v40.012H759.86v40.012h-79.984v80.025h79.984V800.1z" />
        <path style="fill:none;fill-opacity:1;stroke:#1a1a1a;stroke-width:3;stroke-dasharray:none" d="M879.835 39.868v560.17H719.867V480.003h-39.992v-80.024h-39.992v-80.025h79.984V199.917h39.992v-40.013h-79.984V79.88h79.984V39.868h119.976M399.932 480.002V439.99h-79.984v40.012h79.984" />
        <path style="fill:#000;fill-opacity:0;stroke:none;stroke-width:3;stroke-dasharray:none" d="M639.883 399.978h39.992v40.012" fill="none" />
        <path style="fill:#000;fill-opacity:0;stroke:none;stroke-width:3;stroke-dasharray:none" d="M639.883 399.978h39.992v40.012" fill="none" />
        <path style="fill:#000;fill-opacity:0;stroke:none;stroke-width:3;stroke-dasharray:none" d="M639.883 399.978h39.992v40.012" fill="none" />
        <path style="fill:#000;fill-opacity:0;stroke:none;stroke-width:3;stroke-dasharray:none" d="M.013-.144V800.1h879.822V-.144Z" fill="none" />
        <path style="fill:#000;fill-opacity:0;stroke:none;stroke-width:3;stroke-dasharray:none" d="M.013-.144V800.1h879.822V-.144Z" fill="none" />
        <path style="fill:#000;fill-opacity:0;stroke:none;stroke-width:3;stroke-dasharray:none" d="M879.835 39.868V-.144H.013v720.22h319.935V800.1H759.86v-40.012h-79.984v-80.025h-39.992v40.013h-39.991v40.012H559.9v-40.012h-39.992v-160.05h-39.992v160.05H359.94v-40.013h39.992V520.014H239.964v-40.012h-39.992v200.061H79.997v-40.012H40.005V480.002h79.983v-200.06h199.96v-40.013h39.992v-40.012h79.984v-40.013h79.984V79.88h-39.992v40.012h-79.984V39.868Z" fill="none" />
        <path style="fill:none;fill-opacity:0;stroke:#000;stroke-width:3;stroke-dasharray:none;stroke-opacity:1" d="M.013-.144V800.1h879.822V-.144Z" />
      </g>
    </symbol>
  </defs>
</svg>
